<svg width="223" height="223" viewBox="0 0 223 223" fill="none" xmlns="http://www.w3.org/2000/svg">
<path d="M164.091 104.067C161.954 101.279 159.352 98.8633 156.936 96.4475C150.711 90.8725 143.649 86.8771 137.703 81.0233C123.858 67.4575 120.792 45.0646 129.619 27.875C120.792 30.0121 113.08 34.8438 106.483 40.14C82.4171 59.4667 72.9396 93.5671 84.2754 122.836C84.6471 123.765 85.0188 124.694 85.0188 125.902C85.0188 127.946 83.625 129.805 81.7667 130.548C79.6296 131.477 77.3996 130.92 75.6342 129.433C75.1037 128.994 74.6621 128.458 74.3334 127.853C63.8338 114.566 62.1613 95.5183 69.2229 80.28C53.7059 92.9167 45.2505 114.288 46.4584 134.45C47.0159 139.096 47.5734 143.742 49.153 148.388C50.4538 153.963 52.9625 159.538 55.75 164.463C65.785 180.537 83.1604 192.059 101.837 194.382C121.721 196.89 142.999 193.267 158.237 179.515C175.241 164.091 181.188 139.375 172.453 118.19L171.245 115.774C169.294 111.5 164.091 104.067 164.091 104.067ZM134.729 162.604C132.128 164.834 127.853 167.25 124.508 168.179C114.102 171.896 103.695 166.693 97.5625 160.56C108.62 157.958 115.217 149.782 117.168 141.512C118.748 134.079 115.774 127.946 114.566 120.792C113.451 113.916 113.637 108.062 116.146 101.651C117.911 105.182 119.77 108.713 122 111.5C129.154 120.792 140.397 124.88 142.813 137.517C143.185 138.818 143.37 140.118 143.37 141.512C143.649 149.131 140.304 157.494 134.729 162.604Z" fill="white"/>
</svg>
