<svg width="140" height="160" viewBox="0 0 140 160" fill="none" xmlns="http://www.w3.org/2000/svg">
<path d="M69.933 0L139.648 40V120L69.933 160L0.217966 120V40L69.933 0Z" fill="#001850"/>
<path d="M69.933 0L139.648 40V120L69.933 160L0.217966 120V40L69.933 0Z" fill="url(#paint0_linear_0_1)" fill-opacity="0.2"/>
<path d="M139.454 122.5L139.432 118L70.9412 158.16L129.649 133.049L133.582 131.029L137.02 128.512L138.489 126.505L139.454 122.5Z" fill="#001850"/>
<path d="M139.454 122.5L139.432 118L70.9412 158.16L129.649 133.049L133.582 131.029L137.02 128.512L138.489 126.505L139.454 122.5Z" fill="url(#paint1_linear_0_1)" fill-opacity="0.2"/>
<path d="M0.432983 36L0.217966 40.5L70.1221 1.18025L11.2901 26L7.34728 28L3.89728 30.5L2.41871 32.5L0.432983 36Z" fill="#001850"/>
<path d="M0.432983 36L0.217966 40.5L70.1221 1.18025L11.2901 26L7.34728 28L3.89728 30.5L2.41871 32.5L0.432983 36Z" fill="url(#paint2_linear_0_1)" fill-opacity="0.2"/>
<path d="M0 122.499L0.0718741 118L68.1162 158.912L9.68818 133.156L5.77777 131.093L2.36814 128.538L0.9217 126.515L0 122.499Z" fill="#001850"/>
<path d="M0 122.499L0.0718741 118L68.1162 158.912L9.68818 133.156L5.77777 131.093L2.36814 128.538L0.9217 126.515L0 122.499Z" fill="url(#paint3_linear_0_1)" fill-opacity="0.2"/>
<path d="M139.433 35.5V40L70.7439 0.180245L129.576 25L133.519 27L136.969 29.5L138.447 31.5L139.433 35.5Z" fill="#001850"/>
<path d="M139.433 35.5V40L70.7439 0.180245L129.576 25L133.519 27L136.969 29.5L138.447 31.5L139.433 35.5Z" fill="url(#paint4_linear_0_1)" fill-opacity="0.2"/>
<path d="M51.55 55.0698C49.3752 55.0698 47.2895 54.2759 45.7517 52.8629C44.2139 51.4498 43.35 49.5333 43.35 47.5349C43.35 45.5365 44.2139 43.62 45.7517 42.2069C47.2895 40.7939 49.3752 40 51.55 40C53.7248 40 55.8105 40.7939 57.3483 42.2069C58.8861 43.62 59.75 45.5365 59.75 47.5349C59.75 49.5333 58.8861 51.4498 57.3483 52.8629C55.8105 54.2759 53.7248 55.0698 51.55 55.0698ZM66.31 107.437L62.21 90.8605L53.6 98.3953V121H45.4V92.7442L54.01 85.2093L51.55 73.907C48.741 76.8653 45.2751 79.2365 41.3855 80.8611C37.4958 82.4857 33.2726 83.3261 29 83.3256V75.7907C36.216 75.9037 42.94 72.4377 46.63 66.7488L50.73 60.7209C52.206 58.4605 54.83 56.9535 57.7 56.9535C58.93 56.9535 59.75 57.3302 60.98 57.3302L82.3 65.6186V83.3256H74.1V70.5163L66.72 67.8791L73.28 98.3953L93.37 94.6279L95.01 102.163L66.31 107.437ZM102.8 68.2558C103.887 68.2558 104.93 67.8589 105.699 67.1524C106.468 66.4458 106.9 65.4876 106.9 64.4884C106.9 63.4892 106.468 62.5309 105.699 61.8244C104.93 61.1179 103.887 60.7209 102.8 60.7209H90.5V68.2558H102.8ZM98.7 53.186C99.7874 53.186 100.83 52.7891 101.599 52.0826C102.368 51.3761 102.8 50.4178 102.8 49.4186C102.8 48.4194 102.368 47.4612 101.599 46.7546C100.83 46.0481 99.7874 45.6512 98.7 45.6512H78.2V53.186H98.7ZM106.9 83.3256C107.987 83.3256 109.03 82.9287 109.799 82.2221C110.568 81.5156 111 80.5573 111 79.5581C111 78.559 110.568 77.6007 109.799 76.8942C109.03 76.1876 107.987 75.7907 106.9 75.7907H90.5V83.3256H106.9Z" fill="white"/>
<defs>
<linearGradient id="paint0_linear_0_1" x1="69.824" y1="0" x2="69.824" y2="160" gradientUnits="userSpaceOnUse">
<stop/>
<stop offset="1" stop-color="white"/>
</linearGradient>
<linearGradient id="paint1_linear_0_1" x1="69.824" y1="0" x2="69.824" y2="160" gradientUnits="userSpaceOnUse">
<stop/>
<stop offset="1" stop-color="white"/>
</linearGradient>
<linearGradient id="paint2_linear_0_1" x1="69.824" y1="0" x2="69.824" y2="160" gradientUnits="userSpaceOnUse">
<stop/>
<stop offset="1" stop-color="white"/>
</linearGradient>
<linearGradient id="paint3_linear_0_1" x1="69.824" y1="0" x2="69.824" y2="160" gradientUnits="userSpaceOnUse">
<stop/>
<stop offset="1" stop-color="white"/>
</linearGradient>
<linearGradient id="paint4_linear_0_1" x1="69.824" y1="0" x2="69.824" y2="160" gradientUnits="userSpaceOnUse">
<stop/>
<stop offset="1" stop-color="white"/>
</linearGradient>
</defs>
</svg>
