<svg width="183" height="183" viewBox="0 0 183 183" fill="none" xmlns="http://www.w3.org/2000/svg">
<path d="M91.5 11.4375L22.875 34.3125V102.938C22.875 140.842 53.5954 171.562 91.5 171.562C129.405 171.562 160.125 140.842 160.125 102.938V34.3125L91.5 11.4375ZM147.258 102.938C147.258 133.729 122.292 158.695 91.5 158.695C60.7081 158.695 35.7422 133.729 35.7422 102.938V43.9629L91.5 24.3047L147.258 43.9629V102.938Z" fill="white"/>
<path d="M67.6243 84.9056C67.028 84.3066 66.3193 83.8312 65.5388 83.5069C64.7582 83.1825 63.9214 83.0156 63.0761 83.0156C62.2309 83.0156 61.394 83.1825 60.6135 83.5069C59.833 83.8312 59.1242 84.3066 58.5279 84.9056C57.9289 85.5019 57.4536 86.2106 57.1292 86.9911C56.8049 87.7717 56.6379 88.6085 56.6379 89.4538C56.6379 90.299 56.8049 91.1359 57.1292 91.9164C57.4536 92.6969 57.9289 93.4057 58.5279 94.002L81.6531 117.127L82.0284 117.502C82.5925 118.068 83.2624 118.516 83.9999 118.822C84.7374 119.128 85.528 119.285 86.3264 119.285C87.1248 119.285 87.9154 119.128 88.6529 118.822C89.3904 118.516 90.0604 118.068 90.6244 117.502L130.566 77.5606C131.131 76.9965 131.58 76.3266 131.886 75.5891C132.192 74.8516 132.349 74.061 132.349 73.2626C132.349 72.4641 132.192 71.6735 131.886 70.936C131.58 70.1985 131.131 69.5286 130.566 68.9646L130.066 68.4642C129.502 67.8991 128.832 67.4507 128.094 67.1449C127.357 66.839 126.566 66.6815 125.768 66.6815C124.97 66.6815 124.179 66.839 123.441 67.1449C122.704 67.4507 122.034 67.8991 121.47 68.4642L86.3175 103.599L67.6243 84.9056Z" fill="white"/>
</svg>
